<?xml version="1.0" encoding="utf-8"?>
<!-- Generator: Adobe Illustrator 20.1.0, SVG Export Plug-In . SVG Version: 6.00 Build 0)  -->
<svg version="1.1" id="Слой_1" xmlns="http://www.w3.org/2000/svg" xmlns:xlink="http://www.w3.org/1999/xlink" x="0px" y="0px"
	 viewBox="0 0 1250 249" enable-background="new 0 0 1250 249" xml:space="preserve">
<g>
	<defs>
		<rect id="SVGID_1_" width="1001" height="250"/>
	</defs>
	<clipPath id="SVGID_2_">
		<use xlink:href="#SVGID_1_"  overflow="visible"/>
	</clipPath>
</g>
<rect y="22.6" fill="#FFFFFF" width="22.7" height="22.6"/>
<rect y="45.3" fill="#FFFFFF" width="22.7" height="22.6"/>
<rect y="67.9" fill="#FFFFFF" width="22.7" height="22.6"/>
<rect y="90.5" fill="#FFFFFF" width="22.7" height="22.6"/>
<rect y="113.2" fill="#FFFBFB" width="22.7" height="22.6"/>
<rect y="135.8" fill="#FFFFFF" width="22.7" height="22.6"/>
<rect y="158.5" fill="#FFFFFF" width="22.7" height="22.6"/>
<rect y="181.1" fill="#FFFFFF" width="22.7" height="22.6"/>
<rect y="203.7" fill="#FFFFFF" width="22.7" height="22.6"/>
<rect x="22.7" fill="#FFFFFF" width="22.7" height="22.6"/>
<rect x="22.7" y="22.6" fill="#FFFBFB" width="22.7" height="22.6"/>
<rect x="22.7" y="45.3" fill="#FFFFFF" width="22.7" height="22.6"/>
<rect x="22.7" y="67.9" fill="#FEEBEB" width="22.7" height="22.6"/>
<rect x="22.7" y="90.5" fill="#FFFBFB" width="22.7" height="22.6"/>
<rect x="22.7" y="113.2" fill="#FFFFFF" width="22.7" height="22.6"/>
<rect x="22.7" y="135.8" fill="#FEEBEB" width="22.7" height="22.6"/>
<rect x="22.7" y="158.5" fill="#FFFFFF" width="22.7" height="22.6"/>
<rect x="22.7" y="181.1" fill="#FFFFFF" width="22.7" height="22.6"/>
<rect x="22.7" y="203.7" fill="#FEEBEB" width="22.7" height="22.6"/>
<rect x="22.7" y="226.4" fill="#FFFFFF" width="22.7" height="22.6"/>
<rect x="45.4" fill="#FFFFFF" width="22.7" height="22.6"/>
<rect x="45.4" y="22.6" fill="#FFFFFF" width="22.7" height="22.6"/>
<rect x="45.4" y="45.3" fill="#FFFFFF" width="22.7" height="22.6"/>
<rect x="45.4" y="67.9" fill="#FFFFFF" width="22.7" height="22.6"/>
<rect x="45.4" y="90.5" fill="#FEEBEB" width="22.7" height="22.6"/>
<rect x="45.4" y="113.2" fill="#FFFBFB" width="22.7" height="22.6"/>
<rect x="45.4" y="135.8" fill="#FEEBEB" width="22.7" height="22.6"/>
<rect x="45.4" y="158.5" fill="#FEDADB" width="22.7" height="22.6"/>
<rect x="45.4" y="181.1" fill="#FFFBFB" width="22.7" height="22.6"/>
<rect x="45.4" y="203.7" fill="#FFFFFF" width="22.7" height="22.6"/>
<rect x="45.4" y="226.4" fill="#FFFBFB" width="22.7" height="22.6"/>
<rect x="68.2" fill="#FFFFFF" width="22.7" height="22.6"/>
<rect x="68.2" y="22.6" fill="#FEEBEB" width="22.7" height="22.6"/>
<rect x="68.2" y="45.3" fill="#FFFBFB" width="22.7" height="22.6"/>
<rect x="68.2" y="67.9" fill="#F83638" width="22.7" height="22.6"/>
<rect x="68.2" y="90.5" fill="#F83638" width="22.7" height="22.6"/>
<rect x="68.2" y="113.2" fill="#F83638" width="22.7" height="22.6"/>
<rect x="68.2" y="135.8" fill="#F83638" width="22.7" height="22.6"/>
<rect x="68.2" y="158.5" fill="#F83638" width="22.7" height="22.6"/>
<rect x="68.2" y="181.1" fill="#FFFFFF" width="22.7" height="22.6"/>
<rect x="68.2" y="203.7" fill="#FFFBFB" width="22.7" height="22.6"/>
<rect x="68.2" y="226.4" fill="#FFFBFB" width="22.7" height="22.6"/>
<rect x="90.9" fill="#FFFBFB" width="22.7" height="22.6"/>
<rect x="90.9" y="22.6" fill="#FFFBFB" width="22.7" height="22.6"/>
<rect x="90.9" y="45.3" fill="#FEDADB" width="22.7" height="22.6"/>
<rect x="90.9" y="67.9" fill="#F83638" width="22.7" height="22.6"/>
<rect x="90.9" y="90.5" fill="#FEEBEB" width="22.7" height="22.6"/>
<rect x="90.9" y="113.2" fill="#FFFBFB" width="22.7" height="22.6"/>
<rect x="90.9" y="135.8" fill="#FEDADB" width="22.7" height="22.6"/>
<rect x="90.9" y="158.5" fill="#F83638" width="22.7" height="22.6"/>
<rect x="90.9" y="181.1" fill="#FEDADB" width="22.7" height="22.6"/>
<rect x="90.9" y="203.7" fill="#FEEBEB" width="22.7" height="22.6"/>
<rect x="90.9" y="226.4" fill="#FFFBFB" width="22.7" height="22.6"/>
<rect x="113.6" fill="#FFFBFB" width="22.7" height="22.6"/>
<rect x="113.6" y="22.6" fill="#FFFFFF" width="22.7" height="22.6"/>
<rect x="113.6" y="45.3" fill="#FEEBEB" width="22.7" height="22.6"/>
<rect x="113.6" y="67.9" fill="#F83638" width="22.7" height="22.6"/>
<rect x="113.6" y="90.5" fill="#FEDADB" width="22.7" height="22.6"/>
<rect x="113.6" y="113.2" fill="#FFFFFF" width="22.7" height="22.6"/>
<rect x="113.6" y="135.8" fill="#FEDADB" width="22.7" height="22.6"/>
<rect x="113.6" y="158.5" fill="#F83638" width="22.7" height="22.6"/>
<rect x="113.6" y="181.1" fill="#FEDADB" width="22.7" height="22.6"/>
<rect x="113.6" y="203.7" fill="#FFFFFF" width="22.7" height="22.6"/>
<rect x="113.6" y="226.4" fill="#FFFBFB" width="22.7" height="22.6"/>
<rect x="136.4" fill="#FFFFFF" width="22.7" height="22.6"/>
<rect x="136.4" y="22.6" fill="#FFFFFF" width="22.7" height="22.6"/>
<rect x="136.4" y="45.3" fill="#FEDADB" width="22.7" height="22.6"/>
<rect x="136.4" y="67.9" fill="#FEEBEB" width="22.7" height="22.6"/>
<rect x="136.4" y="90.5" fill="#F83638" width="22.7" height="22.6"/>
<rect x="136.4" y="113.2" fill="#F83638" width="22.7" height="22.6"/>
<rect x="136.4" y="135.8" fill="#F83638" width="22.7" height="22.6"/>
<rect x="136.4" y="158.5" fill="#FEEBEB" width="22.7" height="22.6"/>
<rect x="136.4" y="181.1" fill="#FEDADB" width="22.7" height="22.6"/>
<rect x="136.4" y="203.7" fill="#FFFFFF" width="22.7" height="22.6"/>
<rect x="136.4" y="226.4" fill="#FFFBFB" width="22.7" height="22.6"/>
<rect x="159.1" fill="#FFFBFB" width="22.7" height="22.6"/>
<rect x="159.1" y="22.6" fill="#FFFBFB" width="22.7" height="22.6"/>
<rect x="159.1" y="45.3" fill="#FEDADB" width="22.7" height="22.6"/>
<rect x="159.1" y="67.9" fill="#FEDADB" width="22.7" height="22.6"/>
<rect x="159.1" y="90.5" fill="#FFFBFB" width="22.7" height="22.6"/>
<rect x="159.1" y="113.2" fill="#FFFFFF" width="22.7" height="22.6"/>
<rect x="159.1" y="135.8" fill="#FEEBEB" width="22.7" height="22.6"/>
<rect x="159.1" y="158.5" fill="#FFFFFF" width="22.7" height="22.6"/>
<rect x="159.1" y="181.1" fill="#FDCACA" width="22.7" height="22.6"/>
<rect x="159.1" y="203.7" fill="#FFFBFB" width="22.7" height="22.6"/>
<rect x="159.1" y="226.4" fill="#FFFBFB" width="22.7" height="22.6"/>
<rect x="181.8" fill="#FFFFFF" width="22.7" height="22.6"/>
<rect x="181.8" y="22.6" fill="#FFFFFF" width="22.7" height="22.6"/>
<rect x="181.8" y="45.3" fill="#FEDADB" width="22.7" height="22.6"/>
<rect x="181.8" y="67.9" fill="#FDCACA" width="22.7" height="22.6"/>
<rect x="181.8" y="90.5" fill="#F83638" width="22.7" height="22.6"/>
<rect x="181.8" y="113.2" fill="#F83638" width="22.7" height="22.6"/>
<rect x="181.8" y="135.8" fill="#F83638" width="22.7" height="22.6"/>
<rect x="181.8" y="158.5" fill="#F83638" width="22.7" height="22.6"/>
<rect x="181.8" y="181.1" fill="#FEDADB" width="22.7" height="22.6"/>
<rect x="181.8" y="203.7" fill="#FFFBFB" width="22.7" height="22.6"/>
<rect x="181.8" y="226.4" fill="#FFFFFF" width="22.7" height="22.6"/>
<rect x="204.6" fill="#FFFBFB" width="22.7" height="22.6"/>
<rect x="204.6" y="22.6" fill="#FFFFFF" width="22.7" height="22.6"/>
<rect x="204.6" y="45.3" fill="#FEDADB" width="22.7" height="22.6"/>
<rect x="204.6" y="67.9" fill="#F83638" width="22.7" height="22.6"/>
<rect x="204.6" y="90.5" fill="#FFFFFF" width="22.7" height="22.6"/>
<rect x="204.6" y="113.2" fill="#F83638" width="22.7" height="22.6"/>
<rect x="204.6" y="135.8" fill="#FEDADB" width="22.7" height="22.6"/>
<rect x="204.6" y="158.5" fill="#FFFFFF" width="22.7" height="22.6"/>
<rect x="204.6" y="181.1" fill="#FEEBEB" width="22.7" height="22.6"/>
<rect x="204.6" y="203.7" fill="#FEEBEB" width="22.7" height="22.6"/>
<rect x="204.6" y="226.4" fill="#FFFFFF" width="22.7" height="22.6"/>
<rect x="227.3" fill="#FFFFFF" width="22.7" height="22.6"/>
<rect x="227.3" y="22.6" fill="#FFFBFB" width="22.7" height="22.6"/>
<rect x="227.3" y="45.3" fill="#FEDADB" width="22.7" height="22.6"/>
<rect x="227.3" y="67.9" fill="#F83638" width="22.7" height="22.6"/>
<rect x="227.3" y="90.5" fill="#FFFBFB" width="22.7" height="22.6"/>
<rect x="227.3" y="113.2" fill="#F83638" width="22.7" height="22.6"/>
<rect x="227.3" y="135.8" fill="#FFFBFB" width="22.7" height="22.6"/>
<rect x="227.3" y="158.5" fill="#FEDADB" width="22.7" height="22.6"/>
<rect x="227.3" y="181.1" fill="#FFFBFB" width="22.7" height="22.6"/>
<rect x="227.3" y="203.7" fill="#FFFBFB" width="22.7" height="22.6"/>
<rect x="227.3" y="226.4" fill="#FFFFFF" width="22.7" height="22.6"/>
<rect x="250" fill="#FFFBFB" width="22.7" height="22.6"/>
<rect x="250" y="22.6" fill="#FFFBFB" width="22.7" height="22.6"/>
<rect x="250" y="45.3" fill="#FEEBEB" width="22.7" height="22.6"/>
<rect x="250" y="67.9" fill="#FEEBEB" width="22.7" height="22.6"/>
<rect x="250" y="90.5" fill="#F83638" width="22.7" height="22.6"/>
<rect x="250" y="113.2" fill="#F83638" width="22.7" height="22.6"/>
<rect x="250" y="135.8" fill="#F83638" width="22.7" height="22.6"/>
<rect x="250" y="158.5" fill="#F83638" width="22.7" height="22.6"/>
<rect x="250" y="181.1" fill="#FFFFFF" width="22.7" height="22.6"/>
<rect x="250" y="203.7" fill="#FFFBFB" width="22.7" height="22.6"/>
<rect x="250" y="226.4" fill="#FFFFFF" width="22.7" height="22.6"/>
<rect x="272.7" fill="#FFFFFF" width="22.7" height="22.6"/>
<rect x="272.7" y="22.6" fill="#FFFBFB" width="22.7" height="22.6"/>
<rect x="272.7" y="45.3" fill="#FFFBFB" width="22.7" height="22.6"/>
<rect x="272.7" y="67.9" fill="#FEDADB" width="22.7" height="22.6"/>
<rect x="272.7" y="90.5" fill="#FEEBEB" width="22.7" height="22.6"/>
<rect x="272.7" y="113.2" fill="#FEEBEB" width="22.7" height="22.6"/>
<rect x="272.7" y="135.8" fill="#FFFFFF" width="22.7" height="22.6"/>
<rect x="272.7" y="158.5" fill="#FEEBEB" width="22.7" height="22.6"/>
<rect x="272.7" y="181.1" fill="#FEDADB" width="22.7" height="22.6"/>
<rect x="272.7" y="203.7" fill="#FFFBFB" width="22.7" height="22.6"/>
<rect x="272.7" y="226.4" fill="#FFFFFF" width="22.7" height="22.6"/>
<rect x="295.5" fill="#FFFFFF" width="22.7" height="22.6"/>
<rect x="295.5" y="22.6" fill="#FFFFFF" width="22.7" height="22.6"/>
<rect x="295.5" y="45.3" fill="#FEEBEB" width="22.7" height="22.6"/>
<rect x="295.5" y="67.9" fill="#F83638" width="22.7" height="22.6"/>
<rect x="295.5" y="90.5" fill="#FFFFFF" width="22.7" height="22.6"/>
<rect x="295.5" y="113.2" fill="#FFFBFB" width="22.7" height="22.6"/>
<rect x="295.5" y="135.8" fill="#FFFBFB" width="22.7" height="22.6"/>
<rect x="295.5" y="158.5" fill="#FFFFFF" width="22.7" height="22.6"/>
<rect x="295.5" y="181.1" fill="#FEEBEB" width="22.7" height="22.6"/>
<rect x="295.5" y="203.7" fill="#FFFFFF" width="22.7" height="22.6"/>
<rect x="295.5" y="226.4" fill="#FFFFFF" width="22.7" height="22.6"/>
<rect x="318.2" fill="#FFFFFF" width="22.7" height="22.6"/>
<rect x="318.2" y="22.6" fill="#FFFBFB" width="22.7" height="22.6"/>
<rect x="318.2" y="45.3" fill="#FFFBFB" width="22.7" height="22.6"/>
<rect x="318.2" y="67.9" fill="#F83638" width="22.7" height="22.6"/>
<rect x="318.2" y="90.5" fill="#F83638" width="22.7" height="22.6"/>
<rect x="318.2" y="113.2" fill="#F83638" width="22.7" height="22.6"/>
<rect x="318.2" y="135.8" fill="#F83638" width="22.7" height="22.6"/>
<rect x="318.2" y="158.5" fill="#F83638" width="22.7" height="22.6"/>
<rect x="318.2" y="181.1" fill="#FFFFFF" width="22.7" height="22.6"/>
<rect x="318.2" y="203.7" fill="#FFFFFF" width="22.7" height="22.6"/>
<rect x="318.2" y="226.4" fill="#FFFFFF" width="22.7" height="22.6"/>
<rect x="340.9" fill="#FFFFFF" width="22.7" height="22.6"/>
<rect x="340.9" y="22.6" fill="#FFFBFB" width="22.7" height="22.6"/>
<rect x="340.9" y="45.3" fill="#FEDADB" width="22.7" height="22.6"/>
<rect x="340.9" y="67.9" fill="#F83638" width="22.7" height="22.6"/>
<rect x="340.9" y="90.5" fill="#FFFFFF" width="22.7" height="22.6"/>
<rect x="340.9" y="113.2" fill="#FFFFFF" width="22.7" height="22.6"/>
<rect x="340.9" y="135.8" fill="#FEEBEB" width="22.7" height="22.6"/>
<rect x="340.9" y="158.5" fill="#FEDADB" width="22.7" height="22.6"/>
<rect x="340.9" y="181.1" fill="#FFFFFF" width="22.7" height="22.6"/>
<rect x="340.9" y="203.7" fill="#FEEBEB" width="22.7" height="22.6"/>
<rect x="340.9" y="226.4" fill="#FFFBFB" width="22.7" height="22.6"/>
<rect x="363.7" fill="#FFFBFB" width="22.7" height="22.6"/>
<rect x="363.7" y="22.6" fill="#FFFBFB" width="22.7" height="22.6"/>
<rect x="363.7" y="45.3" fill="#FEDADB" width="22.7" height="22.6"/>
<rect x="363.7" y="67.9" fill="#FEDADB" width="22.7" height="22.6"/>
<rect x="363.7" y="90.5" fill="#FEDADB" width="22.7" height="22.6"/>
<rect x="363.7" y="113.2" fill="#FFFFFF" width="22.7" height="22.6"/>
<rect x="363.7" y="135.8" fill="#FDCACA" width="22.7" height="22.6"/>
<rect x="363.7" y="158.5" fill="#FEEBEB" width="22.7" height="22.6"/>
<rect x="363.7" y="181.1" fill="#FEDADB" width="22.7" height="22.6"/>
<rect x="363.7" y="203.7" fill="#FFFFFF" width="22.7" height="22.6"/>
<rect x="363.7" y="226.4" fill="#FFFFFF" width="22.7" height="22.6"/>
<rect x="386.4" fill="#FFFFFF" width="22.7" height="22.6"/>
<rect x="386.4" y="22.6" fill="#FFFBFB" width="22.7" height="22.6"/>
<rect x="386.4" y="45.3" fill="#FEEBEB" width="22.7" height="22.6"/>
<rect x="386.4" y="67.9" fill="#FEDADB" width="22.7" height="22.6"/>
<rect x="386.4" y="90.5" fill="#F83638" width="22.7" height="22.6"/>
<rect x="386.4" y="113.2" fill="#F83638" width="22.7" height="22.6"/>
<rect x="386.4" y="135.8" fill="#F83638" width="22.7" height="22.6"/>
<rect x="386.4" y="158.5" fill="#F83638" width="22.7" height="22.6"/>
<rect x="386.4" y="181.1" fill="#FEDADB" width="22.7" height="22.6"/>
<rect x="386.4" y="203.7" fill="#FFFBFB" width="22.7" height="22.6"/>
<rect x="386.4" y="226.4" fill="#FFFFFF" width="22.7" height="22.6"/>
<rect x="409.1" fill="#FFFFFF" width="22.7" height="22.6"/>
<rect x="409.1" y="22.6" fill="#FEEBEB" width="22.7" height="22.6"/>
<rect x="409.1" y="45.3" fill="#FFFFFF" width="22.7" height="22.6"/>
<rect x="409.1" y="67.9" fill="#F83638" width="22.7" height="22.6"/>
<rect x="409.1" y="90.5" fill="#FEDADB" width="22.7" height="22.6"/>
<rect x="409.1" y="113.2" fill="#F83638" width="22.7" height="22.6"/>
<rect x="409.1" y="135.8" fill="#FFFBFB" width="22.7" height="22.6"/>
<rect x="409.1" y="158.5" fill="#FFFBFB" width="22.7" height="22.6"/>
<rect x="409.1" y="181.1" fill="#FFFBFB" width="22.7" height="22.6"/>
<rect x="409.1" y="203.7" fill="#FEEBEB" width="22.7" height="22.6"/>
<rect x="409.1" y="226.4" fill="#FFFBFB" width="22.7" height="22.6"/>
<rect x="431.9" fill="#FFFBFB" width="22.7" height="22.6"/>
<rect x="431.9" y="22.6" fill="#FFFBFB" width="22.7" height="22.6"/>
<rect x="431.9" y="45.3" fill="#FFFBFB" width="22.7" height="22.6"/>
<rect x="431.9" y="67.9" fill="#F83638" width="22.7" height="22.6"/>
<rect x="431.9" y="90.5" fill="#FFFFFF" width="22.7" height="22.6"/>
<rect x="431.9" y="113.2" fill="#F83638" width="22.7" height="22.6"/>
<rect x="431.9" y="135.8" fill="#FFFBFB" width="22.7" height="22.6"/>
<rect x="431.9" y="158.5" fill="#FFFFFF" width="22.7" height="22.6"/>
<rect x="431.9" y="181.1" fill="#FFFBFB" width="22.7" height="22.6"/>
<rect x="431.9" y="203.7" fill="#FEEBEB" width="22.7" height="22.6"/>
<rect x="431.9" y="226.4" fill="#FFFBFB" width="22.7" height="22.6"/>
<rect x="454.5" fill="#FFFFFF" width="22.7" height="22.6"/>
<rect x="454.5" y="22.6" fill="#FFFBFB" width="22.7" height="22.6"/>
<rect x="454.5" y="45.3" fill="#FEEBEB" width="22.7" height="22.6"/>
<rect x="454.5" y="67.9" fill="#FFFFFF" width="22.7" height="22.6"/>
<rect x="454.5" y="90.5" fill="#F83638" width="22.7" height="22.6"/>
<rect x="454.5" y="113.2" fill="#F83638" width="22.7" height="22.6"/>
<rect x="454.5" y="135.8" fill="#F83638" width="22.7" height="22.6"/>
<rect x="454.5" y="158.5" fill="#F83638" width="22.7" height="22.6"/>
<rect x="454.5" y="181.1" fill="#FFFBFB" width="22.7" height="22.6"/>
<rect x="454.5" y="203.7" fill="#FFFFFF" width="22.7" height="22.6"/>
<rect x="454.5" y="226.4" fill="#FFFFFF" width="22.7" height="22.6"/>
<rect x="477.3" fill="#FFFBFB" width="22.7" height="22.6"/>
<rect x="477.3" y="22.6" fill="#FEEBEB" width="22.7" height="22.6"/>
<rect x="477.3" y="45.3" fill="#FFFFFF" width="22.7" height="22.6"/>
<rect x="477.3" y="67.9" fill="#FEDADB" width="22.7" height="22.6"/>
<rect x="477.3" y="90.5" fill="#FDCACA" width="22.7" height="22.6"/>
<rect x="477.3" y="113.2" fill="#FEDADB" width="22.7" height="22.6"/>
<rect x="477.3" y="135.8" fill="#FFFBFB" width="22.7" height="22.6"/>
<rect x="477.3" y="158.5" fill="#FFFFFF" width="22.7" height="22.6"/>
<rect x="477.3" y="181.1" fill="#FEEBEB" width="22.7" height="22.6"/>
<rect x="477.3" y="203.7" fill="#FFFFFF" width="22.7" height="22.6"/>
<rect x="477.3" y="226.4" fill="#FFFFFF" width="22.7" height="22.6"/>
<rect x="500" fill="#FFFFFF" width="22.7" height="22.6"/>
<rect x="500" y="22.6" fill="#FEEBEB" width="22.7" height="22.6"/>
<rect x="500" y="45.3" fill="#FFFBFB" width="22.7" height="22.6"/>
<rect x="500" y="67.9" fill="#FEEBEB" width="22.7" height="22.6"/>
<rect x="500" y="90.5" fill="#F83638" width="22.7" height="22.6"/>
<rect x="500" y="113.2" fill="#F83638" width="22.7" height="22.6"/>
<rect x="500" y="135.8" fill="#F83638" width="22.7" height="22.6"/>
<rect x="500" y="158.5" fill="#FFFFFF" width="22.7" height="22.6"/>
<rect x="500" y="181.1" fill="#FFFFFF" width="22.7" height="22.6"/>
<rect x="500" y="203.7" fill="#FFFFFF" width="22.7" height="22.6"/>
<rect x="500" y="226.4" fill="#FFFFFF" width="22.7" height="22.6"/>
<rect x="522.7" fill="#FFFBFB" width="22.7" height="22.6"/>
<rect x="522.7" y="22.6" fill="#FEEBEB" width="22.7" height="22.6"/>
<rect x="522.7" y="45.3" fill="#FEDADB" width="22.7" height="22.6"/>
<rect x="522.7" y="67.9" fill="#F83638" width="22.7" height="22.6"/>
<rect x="522.7" y="90.5" fill="#FFFFFF" width="22.7" height="22.6"/>
<rect x="522.7" y="113.2" fill="#FFFBFB" width="22.7" height="22.6"/>
<rect x="522.7" y="135.8" fill="#FFFBFB" width="22.7" height="22.6"/>
<rect x="522.7" y="158.5" fill="#F83638" width="22.7" height="22.6"/>
<rect x="522.7" y="181.1" fill="#FDCACA" width="22.7" height="22.6"/>
<rect x="522.7" y="203.7" fill="#FFFFFF" width="22.7" height="22.6"/>
<rect x="522.7" y="226.4" fill="#FFFBFB" width="22.7" height="22.6"/>
<rect x="545.5" fill="#FFFFFF" width="22.7" height="22.6"/>
<rect x="545.5" y="22.6" fill="#FEEBEB" width="22.7" height="22.6"/>
<rect x="545.5" y="45.3" fill="#FFFFFF" width="22.7" height="22.6"/>
<rect x="545.5" y="67.9" fill="#F83638" width="22.7" height="22.6"/>
<rect x="545.5" y="90.5" fill="#FEEBEB" width="22.7" height="22.6"/>
<rect x="545.5" y="113.2" fill="#F83638" width="22.7" height="22.6"/>
<rect x="545.5" y="135.8" fill="#FEEBEB" width="22.7" height="22.6"/>
<rect x="545.5" y="158.5" fill="#F83638" width="22.7" height="22.6"/>
<rect x="545.5" y="181.1" fill="#FFFBFB" width="22.7" height="22.6"/>
<rect x="545.5" y="203.7" fill="#FFFFFF" width="22.7" height="22.6"/>
<rect x="545.5" y="226.4" fill="#FFFFFF" width="22.7" height="22.6"/>
<rect x="568.2" fill="#FFFFFF" width="22.7" height="22.6"/>
<rect x="568.2" y="22.6" fill="#FFFFFF" width="22.7" height="22.6"/>
<rect x="568.2" y="45.3" fill="#FFFFFF" width="22.7" height="22.6"/>
<rect x="568.2" y="67.9" fill="#F83638" width="22.7" height="22.6"/>
<rect x="568.2" y="90.5" fill="#FEDADB" width="22.7" height="22.6"/>
<rect x="568.2" y="113.2" fill="#F83638" width="22.7" height="22.6"/>
<rect x="568.2" y="135.8" fill="#F83638" width="22.7" height="22.6"/>
<rect x="568.2" y="158.5" fill="#FFFFFF" width="22.7" height="22.6"/>
<rect x="568.2" y="181.1" fill="#FFFBFB" width="22.7" height="22.6"/>
<rect x="568.2" y="203.7" fill="#FFFFFF" width="22.7" height="22.6"/>
<rect x="568.2" y="226.4" fill="#FFFBFB" width="22.7" height="22.6"/>
<rect x="590.9" fill="#FFFBFB" width="22.7" height="22.6"/>
<rect x="590.9" y="22.6" fill="#FFFFFF" width="22.7" height="22.6"/>
<rect x="590.9" y="45.3" fill="#FEEBEB" width="22.7" height="22.6"/>
<rect x="590.9" y="67.9" fill="#FFFFFF" width="22.7" height="22.6"/>
<rect x="590.9" y="90.5" fill="#FEDADB" width="22.7" height="22.6"/>
<rect x="590.9" y="113.2" fill="#FDCACA" width="22.7" height="22.6"/>
<rect x="590.9" y="135.8" fill="#FEDADB" width="22.7" height="22.6"/>
<rect x="590.9" y="158.5" fill="#FEDADB" width="22.7" height="22.6"/>
<rect x="590.9" y="181.1" fill="#FEEBEB" width="22.7" height="22.6"/>
<rect x="590.9" y="203.7" fill="#FFFFFF" width="22.7" height="22.6"/>
<rect x="590.9" y="226.4" fill="#FFFFFF" width="22.7" height="22.6"/>
<rect x="613.6" fill="#FFFFFF" width="22.7" height="22.6"/>
<rect x="613.6" y="22.6" fill="#FEEBEB" width="22.7" height="22.6"/>
<rect x="613.6" y="45.3" fill="#FFFFFF" width="22.7" height="22.6"/>
<rect x="613.6" y="67.9" fill="#F83638" width="22.7" height="22.6"/>
<rect x="613.6" y="90.5" fill="#F83638" width="22.7" height="22.6"/>
<rect x="613.6" y="113.2" fill="#F83638" width="22.7" height="22.6"/>
<rect x="613.6" y="135.8" fill="#F83638" width="22.7" height="22.6"/>
<rect x="613.6" y="158.5" fill="#F83638" width="22.7" height="22.6"/>
<rect x="613.6" y="181.1" fill="#FEDADB" width="22.7" height="22.6"/>
<rect x="613.6" y="203.7" fill="#FFFBFB" width="22.7" height="22.6"/>
<rect x="613.6" y="226.4" fill="#FFFFFF" width="22.7" height="22.6"/>
<rect x="636.4" fill="#FFFFFF" width="22.7" height="22.6"/>
<rect x="636.4" y="22.6" fill="#FFFBFB" width="22.7" height="22.6"/>
<rect x="636.4" y="45.3" fill="#FEDADB" width="22.7" height="22.6"/>
<rect x="636.4" y="67.9" fill="#F83638" width="22.7" height="22.6"/>
<rect x="636.4" y="90.5" fill="#FFFBFB" width="22.7" height="22.6"/>
<rect x="636.4" y="113.2" fill="#F83638" width="22.7" height="22.6"/>
<rect x="636.4" y="135.8" fill="#FEDADB" width="22.7" height="22.6"/>
<rect x="636.4" y="158.5" fill="#FFFBFB" width="22.7" height="22.6"/>
<rect x="636.4" y="181.1" fill="#FFFBFB" width="22.7" height="22.6"/>
<rect x="636.4" y="203.7" fill="#FFFFFF" width="22.7" height="22.6"/>
<rect x="636.4" y="226.4" fill="#FFFFFF" width="22.7" height="22.6"/>
<rect x="659.1" fill="#FFFFFF" width="22.7" height="22.6"/>
<rect x="659.1" y="22.6" fill="#FFFFFF" width="22.7" height="22.6"/>
<rect x="659.1" y="45.3" fill="#FEDADB" width="22.7" height="22.6"/>
<rect x="659.1" y="67.9" fill="#F83638" width="22.7" height="22.6"/>
<rect x="659.1" y="90.5" fill="#FFFBFB" width="22.7" height="22.6"/>
<rect x="659.1" y="113.2" fill="#F83638" width="22.7" height="22.6"/>
<rect x="659.1" y="135.8" fill="#FFFFFF" width="22.7" height="22.6"/>
<rect x="659.1" y="158.5" fill="#FFFFFF" width="22.7" height="22.6"/>
<rect x="659.1" y="181.1" fill="#FFFBFB" width="22.7" height="22.6"/>
<rect x="659.1" y="203.7" fill="#FFFBFB" width="22.7" height="22.6"/>
<rect x="659.1" y="226.4" fill="#FFFFFF" width="22.7" height="22.6"/>
<rect x="681.8" fill="#FFFBFB" width="22.7" height="22.6"/>
<rect x="681.8" y="22.6" fill="#FEEBEB" width="22.7" height="22.6"/>
<rect x="681.8" y="45.3" fill="#FFFBFB" width="22.7" height="22.6"/>
<rect x="681.8" y="67.9" fill="#FFFBFB" width="22.7" height="22.6"/>
<rect x="681.8" y="90.5" fill="#F83638" width="22.7" height="22.6"/>
<rect x="681.8" y="113.2" fill="#FEDADB" width="22.7" height="22.6"/>
<rect x="681.8" y="135.8" fill="#F83638" width="22.7" height="22.6"/>
<rect x="681.8" y="158.5" fill="#F83638" width="22.7" height="22.6"/>
<rect x="681.8" y="181.1" fill="#FEEBEB" width="22.7" height="22.6"/>
<rect x="681.8" y="203.7" fill="#FFFFFF" width="22.7" height="22.6"/>
<rect x="681.8" y="226.4" fill="#FFFBFB" width="22.7" height="22.6"/>
<rect x="704.6" fill="#FFFBFB" width="22.7" height="22.6"/>
<rect x="704.6" y="22.6" fill="#FEEBEB" width="22.7" height="22.6"/>
<rect x="704.6" y="45.3" fill="#FFFBFB" width="22.7" height="22.6"/>
<rect x="704.6" y="67.9" fill="#FEDADB" width="22.7" height="22.6"/>
<rect x="704.6" y="90.5" fill="#FEEBEB" width="22.7" height="22.6"/>
<rect x="704.6" y="113.2" fill="#FFFBFB" width="22.7" height="22.6"/>
<rect x="704.6" y="135.8" fill="#FEEBEB" width="22.7" height="22.6"/>
<rect x="704.6" y="158.5" fill="#FFFFFF" width="22.7" height="22.6"/>
<rect x="704.6" y="181.1" fill="#FEEBEB" width="22.7" height="22.6"/>
<rect x="704.6" y="203.7" fill="#FFFBFB" width="22.7" height="22.6"/>
<rect x="704.6" y="226.4" fill="#FFFFFF" width="22.7" height="22.6"/>
<rect x="727.3" fill="#FFFFFF" width="22.7" height="22.6"/>
<rect x="727.3" y="22.6" fill="#FEEBEB" width="22.7" height="22.6"/>
<rect x="727.3" y="45.3" fill="#FFFBFB" width="22.7" height="22.6"/>
<rect x="727.3" y="67.9" fill="#FFFFFF" width="22.7" height="22.6"/>
<rect x="727.3" y="90.5" fill="#F83638" width="22.7" height="22.6"/>
<rect x="727.3" y="113.2" fill="#F83638" width="22.7" height="22.6"/>
<rect x="727.3" y="135.8" fill="#F83638" width="22.7" height="22.6"/>
<rect x="727.3" y="158.5" fill="#F83638" width="22.7" height="22.6"/>
<rect x="727.3" y="181.1" fill="#FFFFFF" width="22.7" height="22.6"/>
<rect x="727.3" y="203.7" fill="#FEEBEB" width="22.7" height="22.6"/>
<rect x="727.3" y="226.4" fill="#FFFFFF" width="22.7" height="22.6"/>
<rect x="750" fill="#FFFFFF" width="22.7" height="22.6"/>
<rect x="750" y="22.6" fill="#FFFBFB" width="22.7" height="22.6"/>
<rect x="750" y="45.3" fill="#FEDADB" width="22.7" height="22.6"/>
<rect x="750" y="67.9" fill="#F83638" width="22.7" height="22.6"/>
<rect x="750" y="90.5" fill="#FFFFFF" width="22.7" height="22.6"/>
<rect x="750" y="113.2" fill="#F83638" width="22.7" height="22.6"/>
<rect x="750" y="135.8" fill="#FEDADB" width="22.7" height="22.6"/>
<rect x="750" y="158.5" fill="#FEEBEB" width="22.7" height="22.6"/>
<rect x="750" y="181.1" fill="#FEEBEB" width="22.7" height="22.6"/>
<rect x="750" y="203.7" fill="#FEEBEB" width="22.7" height="22.6"/>
<rect x="750" y="226.4" fill="#FFFFFF" width="22.7" height="22.6"/>
<rect x="772.8" fill="#FFFFFF" width="22.7" height="22.6"/>
<rect x="772.8" y="22.6" fill="#FFFBFB" width="22.7" height="22.6"/>
<rect x="772.8" y="45.3" fill="#FFFFFF" width="22.7" height="22.6"/>
<rect x="772.8" y="67.9" fill="#F83638" width="22.7" height="22.6"/>
<rect x="772.8" y="90.5" fill="#FEEBEB" width="22.7" height="22.6"/>
<rect x="772.8" y="113.2" fill="#F83638" width="22.7" height="22.6"/>
<rect x="772.8" y="135.8" fill="#FDCACA" width="22.7" height="22.6"/>
<rect x="772.8" y="158.5" fill="#FDCACA" width="22.7" height="22.6"/>
<rect x="772.8" y="181.1" fill="#FEEBEB" width="22.7" height="22.6"/>
<rect x="772.8" y="203.7" fill="#FEEBEB" width="22.7" height="22.6"/>
<rect x="772.8" y="226.4" fill="#FFFBFB" width="22.7" height="22.6"/>
<rect x="795.5" fill="#FFFBFB" width="22.7" height="22.6"/>
<rect x="795.5" y="22.6" fill="#FFFFFF" width="22.7" height="22.6"/>
<rect x="795.5" y="45.3" fill="#FFFBFB" width="22.7" height="22.6"/>
<rect x="795.5" y="67.9" fill="#FFFBFB" width="22.7" height="22.6"/>
<rect x="795.5" y="90.5" fill="#F83638" width="22.7" height="22.6"/>
<rect x="795.5" y="113.2" fill="#F83638" width="22.7" height="22.6"/>
<rect x="795.5" y="135.8" fill="#F83638" width="22.7" height="22.6"/>
<rect x="795.5" y="158.5" fill="#F83638" width="22.7" height="22.6"/>
<rect x="795.5" y="181.1" fill="#FFFBFB" width="22.7" height="22.6"/>
<rect x="795.5" y="203.7" fill="#FFFFFF" width="22.7" height="22.6"/>
<rect x="795.5" y="226.4" fill="#FFFBFB" width="22.7" height="22.6"/>
<rect x="818.2" fill="#FFFFFF" width="22.7" height="22.6"/>
<rect x="818.2" y="22.6" fill="#FEEBEB" width="22.7" height="22.6"/>
<rect x="818.2" y="45.3" fill="#FFFBFB" width="22.7" height="22.6"/>
<rect x="818.2" y="67.9" fill="#FEEBEB" width="22.7" height="22.6"/>
<rect x="818.2" y="90.5" fill="#FEDADB" width="22.7" height="22.6"/>
<rect x="818.2" y="113.2" fill="#FEDADB" width="22.7" height="22.6"/>
<rect x="818.2" y="135.8" fill="#FDCACA" width="22.7" height="22.6"/>
<rect x="818.2" y="158.5" fill="#FEEBEB" width="22.7" height="22.6"/>
<rect x="818.2" y="181.1" fill="#FEDADB" width="22.7" height="22.6"/>
<rect x="818.2" y="203.7" fill="#FFFBFB" width="22.7" height="22.6"/>
<rect x="818.2" y="226.4" fill="#FFFFFF" width="22.7" height="22.6"/>
<rect x="841" fill="#FFFFFF" width="22.7" height="22.6"/>
<rect x="841" y="22.6" fill="#FFFFFF" width="22.7" height="22.6"/>
<rect x="841" y="45.3" fill="#FEEBEB" width="22.7" height="22.6"/>
<rect x="841" y="67.9" fill="#F83638" width="22.7" height="22.6"/>
<rect x="841" y="90.5" fill="#F83638" width="22.7" height="22.6"/>
<rect x="841" y="113.2" fill="#F83638" width="22.7" height="22.6"/>
<rect x="841" y="135.8" fill="#F83638" width="22.7" height="22.6"/>
<rect x="841" y="158.5" fill="#F83638" width="22.7" height="22.6"/>
<rect x="841" y="181.1" fill="#FEEBEB" width="22.7" height="22.6"/>
<rect x="841" y="203.7" fill="#FEEBEB" width="22.7" height="22.6"/>
<rect x="841" y="226.4" fill="#FFFFFF" width="22.7" height="22.6"/>
<rect x="863.6" fill="#FFFFFF" width="22.7" height="22.6"/>
<rect x="863.6" y="22.6" fill="#FFFFFF" width="22.7" height="22.6"/>
<rect x="863.6" y="45.3" fill="#FFFBFB" width="22.7" height="22.6"/>
<rect x="863.6" y="67.9" fill="#F83638" width="22.7" height="22.6"/>
<rect x="863.6" y="90.5" fill="#FEDADB" width="22.7" height="22.6"/>
<rect x="863.6" y="113.2" fill="#F83638" width="22.7" height="22.6"/>
<rect x="863.6" y="135.8" fill="#FFFFFF" width="22.7" height="22.6"/>
<rect x="863.6" y="158.5" fill="#FFFFFF" width="22.7" height="22.6"/>
<rect x="863.6" y="181.1" fill="#FFFBFB" width="22.7" height="22.6"/>
<rect x="863.6" y="203.7" fill="#FFFBFB" width="22.7" height="22.6"/>
<rect x="863.6" y="226.4" fill="#FFFFFF" width="22.7" height="22.6"/>
<rect x="886.4" fill="#FFFFFF" width="22.7" height="22.6"/>
<rect x="886.4" y="22.6" fill="#FFFFFF" width="22.7" height="22.6"/>
<rect x="886.4" y="45.3" fill="#FEDADB" width="22.7" height="22.6"/>
<rect x="886.4" y="67.9" fill="#F83638" width="22.7" height="22.6"/>
<rect x="886.4" y="90.5" fill="#FFFFFF" width="22.7" height="22.6"/>
<rect x="886.4" y="113.2" fill="#F83638" width="22.7" height="22.6"/>
<rect x="886.4" y="135.8" fill="#FFFBFB" width="22.7" height="22.6"/>
<rect x="886.4" y="158.5" fill="#FDCACA" width="22.7" height="22.6"/>
<rect x="886.4" y="181.1" fill="#FEDADB" width="22.7" height="22.6"/>
<rect x="886.4" y="203.7" fill="#FFFFFF" width="22.7" height="22.6"/>
<rect x="886.4" y="226.4" fill="#FFFFFF" width="22.7" height="22.6"/>
<rect x="909.1" fill="#FFFBFB" width="22.7" height="22.6"/>
<rect x="909.1" y="22.6" fill="#FFFBFB" width="22.7" height="22.6"/>
<rect x="909.1" y="45.3" fill="#FDCACA" width="22.7" height="22.6"/>
<rect x="909.1" y="67.9" fill="#FEDADB" width="22.7" height="22.6"/>
<rect x="909.1" y="90.5" fill="#F83638" width="22.7" height="22.6"/>
<rect x="909.1" y="113.2" fill="#FFFBFB" width="22.7" height="22.6"/>
<rect x="909.1" y="135.8" fill="#FFFFFF" width="22.7" height="22.6"/>
<rect x="909.1" y="158.5" fill="#FFFFFF" width="22.7" height="22.6"/>
<rect x="909.1" y="181.1" fill="#FEEBEB" width="22.7" height="22.6"/>
<rect x="909.1" y="203.7" fill="#FFFBFB" width="22.7" height="22.6"/>
<rect x="909.1" y="226.4" fill="#FFFFFF" width="22.7" height="22.6"/>
<rect x="931.8" fill="#FFFFFF" width="22.7" height="22.6"/>
<rect x="931.8" y="22.6" fill="#FFFFFF" width="22.7" height="22.6"/>
<rect x="931.8" y="45.3" fill="#FEEBEB" width="22.7" height="22.6"/>
<rect x="931.8" y="67.9" fill="#FEEBEB" width="22.7" height="22.6"/>
<rect x="931.8" y="90.5" fill="#FEEBEB" width="22.7" height="22.6"/>
<rect x="931.8" y="113.2" fill="#FEDADB" width="22.7" height="22.6"/>
<rect x="931.8" y="135.8" fill="#FFFBFB" width="22.7" height="22.6"/>
<rect x="931.8" y="158.5" fill="#FEEBEB" width="22.7" height="22.6"/>
<rect x="931.8" y="181.1" fill="#FFFBFB" width="22.7" height="22.6"/>
<rect x="931.8" y="203.7" fill="#FFFFFF" width="22.7" height="22.6"/>
<rect x="931.8" y="226.4" fill="#FFFBFB" width="22.7" height="22.6"/>
<rect x="954.6" fill="#FFFFFF" width="22.7" height="22.6"/>
<rect x="954.6" y="22.6" fill="#FFFFFF" width="22.7" height="22.6"/>
<rect x="954.6" y="45.3" fill="#FFFFFF" width="22.7" height="22.6"/>
<rect x="954.6" y="67.9" fill="#F83638" width="22.7" height="22.6"/>
<rect x="954.6" y="90.5" fill="#F83638" width="22.7" height="22.6"/>
<rect x="954.6" y="113.2" fill="#F83638" width="22.7" height="22.6"/>
<rect x="954.6" y="135.8" fill="#F83638" width="22.7" height="22.6"/>
<rect x="954.6" y="158.5" fill="#F83638" width="22.7" height="22.6"/>
<rect x="954.6" y="181.1" fill="#FEDADB" width="22.7" height="22.6"/>
<rect x="954.6" y="203.7" fill="#FEEBEB" width="22.7" height="22.6"/>
<rect x="954.6" y="226.4" fill="#FFFFFF" width="22.7" height="22.6"/>
<rect x="977.3" fill="#FFFFFF" width="22.7" height="22.6"/>
<rect x="977.3" y="22.6" fill="#FFFBFB" width="22.7" height="22.6"/>
<rect x="977.3" y="45.3" fill="#FFFFFF" width="22.7" height="22.6"/>
<rect x="977.3" y="67.9" fill="#FEDADB" width="22.7" height="22.6"/>
<rect x="977.3" y="90.5" fill="#FEEBEB" width="22.7" height="22.6"/>
<rect x="977.3" y="113.2" fill="#F83638" width="22.7" height="22.6"/>
<rect x="977.3" y="135.8" fill="#FEEBEB" width="22.7" height="22.6"/>
<rect x="977.3" y="158.5" fill="#FFFFFF" width="22.7" height="22.6"/>
<rect x="977.3" y="181.1" fill="#FFFBFB" width="22.7" height="22.6"/>
<rect x="977.3" y="203.7" fill="#FFFBFB" width="22.7" height="22.6"/>
<rect x="977.3" y="226.4" fill="#FFFFFF" width="22.7" height="22.6"/>
<rect x="1000" fill="#FFFFFF" width="22.7" height="22.6"/>
<rect x="1000" y="22.6" fill="#FFFBFB" width="22.7" height="22.6"/>
<rect x="1000" y="45.3" fill="#FFFFFF" width="22.7" height="22.6"/>
<rect x="1000" y="67.9" fill="#FEDADB" width="22.7" height="22.6"/>
<rect x="1000" y="90.5" fill="#FFFFFF" width="22.7" height="22.6"/>
<rect x="1000" y="113.2" fill="#F83638" width="22.7" height="22.6"/>
<rect x="1000" y="135.8" fill="#FFFFFF" width="22.7" height="22.6"/>
<rect x="1000" y="158.5" fill="#FEEBEB" width="22.7" height="22.6"/>
<rect x="1000" y="181.1" fill="#FFFBFB" width="22.7" height="22.6"/>
<rect x="1000" y="203.7" fill="#FFFBFB" width="22.7" height="22.6"/>
<rect x="1000" y="226.4" fill="#FFFFFF" width="22.7" height="22.6"/>
<rect x="1022.7" fill="#FFFFFF" width="22.7" height="22.6"/>
<rect x="1022.7" y="22.6" fill="#FFFFFF" width="22.7" height="22.6"/>
<rect x="1022.7" y="45.3" fill="#FEEBEB" width="22.7" height="22.6"/>
<rect x="1022.7" y="67.9" fill="#F83638" width="22.7" height="22.6"/>
<rect x="1022.7" y="90.5" fill="#F83638" width="22.7" height="22.6"/>
<rect x="1022.7" y="113.2" fill="#F83638" width="22.7" height="22.6"/>
<rect x="1022.7" y="135.8" fill="#F83638" width="22.7" height="22.6"/>
<rect x="1022.7" y="158.5" fill="#F83638" width="22.7" height="22.6"/>
<rect x="1022.7" y="181.1" fill="#FFFBFB" width="22.7" height="22.6"/>
<rect x="1022.7" y="203.7" fill="#FFFFFF" width="22.7" height="22.6"/>
<rect x="1022.7" y="226.4" fill="#FFFFFF" width="22.7" height="22.6"/>
<rect x="1045.5" fill="#FFFFFF" width="22.7" height="22.6"/>
<rect x="1045.5" y="22.6" fill="#FFFBFB" width="22.7" height="22.6"/>
<rect x="1045.5" y="45.3" fill="#FFFFFF" width="22.7" height="22.6"/>
<rect x="1045.5" y="67.9" fill="#FFFBFB" width="22.7" height="22.6"/>
<rect x="1045.5" y="90.5" fill="#FFFFFF" width="22.7" height="22.6"/>
<rect x="1045.5" y="113.2" fill="#FEEBEB" width="22.7" height="22.6"/>
<rect x="1045.5" y="135.8" fill="#FFFFFF" width="22.7" height="22.6"/>
<rect x="1045.5" y="158.5" fill="#FEEBEB" width="22.7" height="22.6"/>
<rect x="1045.5" y="181.1" fill="#FEDADB" width="22.7" height="22.6"/>
<rect x="1045.5" y="203.7" fill="#FFFBFB" width="22.7" height="22.6"/>
<rect x="1045.5" y="226.4" fill="#FFFBFB" width="22.7" height="22.6"/>
<rect x="1068.2" fill="#FFFBFB" width="22.7" height="22.6"/>
<rect x="1068.2" y="22.6" fill="#FFFFFF" width="22.7" height="22.6"/>
<rect x="1068.2" y="45.3" fill="#FDCACA" width="22.7" height="22.6"/>
<rect x="1068.2" y="67.9" fill="#F83638" width="22.7" height="22.6"/>
<rect x="1068.2" y="90.5" fill="#FEEBEB" width="22.7" height="22.6"/>
<rect x="1068.2" y="113.2" fill="#FEDADB" width="22.7" height="22.6"/>
<rect x="1068.2" y="135.8" fill="#FFFBFB" width="22.7" height="22.6"/>
<rect x="1068.2" y="158.5" fill="#FEDADB" width="22.7" height="22.6"/>
<rect x="1068.2" y="181.1" fill="#FFFBFB" width="22.7" height="22.6"/>
<rect x="1068.2" y="203.7" fill="#FEEBEB" width="22.7" height="22.6"/>
<rect x="1068.2" y="226.4" fill="#FFFFFF" width="22.7" height="22.6"/>
<rect x="1090.9" fill="#FFFFFF" width="22.7" height="22.6"/>
<rect x="1090.9" y="22.6" fill="#FFFBFB" width="22.7" height="22.6"/>
<rect x="1090.9" y="45.3" fill="#FFFFFF" width="22.7" height="22.6"/>
<rect x="1090.9" y="67.9" fill="#FFFBFB" width="22.7" height="22.6"/>
<rect x="1090.9" y="90.5" fill="#F83638" width="22.7" height="22.6"/>
<rect x="1090.9" y="113.2" fill="#FFFFFF" width="22.7" height="22.6"/>
<rect x="1090.9" y="135.8" fill="#FEEBEB" width="22.7" height="22.6"/>
<rect x="1090.9" y="158.5" fill="#FEEBEB" width="22.7" height="22.6"/>
<rect x="1090.9" y="181.1" fill="#FEEBEB" width="22.7" height="22.6"/>
<rect x="1090.9" y="203.7" fill="#FEEBEB" width="22.7" height="22.6"/>
<rect x="1090.9" y="226.4" fill="#FFFBFB" width="22.7" height="22.6"/>
<rect x="1113.7" fill="#FFFFFF" width="22.7" height="22.6"/>
<rect x="1113.7" y="22.6" fill="#FEEBEB" width="22.7" height="22.6"/>
<rect x="1113.7" y="45.3" fill="#FEDADB" width="22.7" height="22.6"/>
<rect x="1113.7" y="67.9" fill="#FFFBFB" width="22.7" height="22.6"/>
<rect x="1113.7" y="90.5" fill="#FEDADB" width="22.7" height="22.6"/>
<rect x="1113.7" y="113.2" fill="#F83638" width="22.7" height="22.6"/>
<rect x="1113.7" y="135.8" fill="#F83638" width="22.7" height="22.6"/>
<rect x="1113.7" y="158.5" fill="#F83638" width="22.7" height="22.6"/>
<rect x="1113.7" y="181.1" fill="#FEEBEB" width="22.7" height="22.6"/>
<rect x="1113.7" y="203.7" fill="#FFFFFF" width="22.7" height="22.6"/>
<rect x="1113.7" y="226.4" fill="#FFFBFB" width="22.7" height="22.6"/>
<rect x="1136.4" fill="#FFFFFF" width="22.7" height="22.6"/>
<rect x="1136.4" y="22.6" fill="#FFFFFF" width="22.7" height="22.6"/>
<rect x="1136.4" y="45.3" fill="#FFFFFF" width="22.7" height="22.6"/>
<rect x="1136.4" y="67.9" fill="#FEEBEB" width="22.7" height="22.6"/>
<rect x="1136.4" y="90.5" fill="#F83638" width="22.7" height="22.6"/>
<rect x="1136.4" y="113.2" fill="#FEEBEB" width="22.7" height="22.6"/>
<rect x="1136.4" y="135.8" fill="#FEDADB" width="22.7" height="22.6"/>
<rect x="1136.4" y="158.5" fill="#FFFFFF" width="22.7" height="22.6"/>
<rect x="1136.4" y="181.1" fill="#FEDADB" width="22.7" height="22.6"/>
<rect x="1136.4" y="203.7" fill="#FFFBFB" width="22.7" height="22.6"/>
<rect x="1136.4" y="226.4" fill="#FFFFFF" width="22.7" height="22.6"/>
<rect x="1159.1" fill="#FFFBFB" width="22.7" height="22.6"/>
<rect x="1159.1" y="22.6" fill="#FFFFFF" width="22.7" height="22.6"/>
<rect x="1159.1" y="45.3" fill="#FFFFFF" width="22.7" height="22.6"/>
<rect x="1159.1" y="67.9" fill="#F83638" width="22.7" height="22.6"/>
<rect x="1159.1" y="90.5" fill="#FEEBEB" width="22.7" height="22.6"/>
<rect x="1159.1" y="113.2" fill="#FFFBFB" width="22.7" height="22.6"/>
<rect x="1159.1" y="135.8" fill="#FEDADB" width="22.7" height="22.6"/>
<rect x="1159.1" y="158.5" fill="#FFFFFF" width="22.7" height="22.6"/>
<rect x="1159.1" y="181.1" fill="#FFFFFF" width="22.7" height="22.6"/>
<rect x="1159.1" y="203.7" fill="#FEEBEB" width="22.7" height="22.6"/>
<rect x="1159.1" y="226.4" fill="#FFFFFF" width="22.7" height="22.6"/>
<rect x="1181.9" fill="#FFFFFF" width="22.7" height="22.6"/>
<rect x="1181.9" y="22.6" fill="#FEEBEB" width="22.7" height="22.6"/>
<rect x="1181.9" y="45.3" fill="#FFFFFF" width="22.7" height="22.6"/>
<rect x="1181.9" y="67.9" fill="#FFFBFB" width="22.7" height="22.6"/>
<rect x="1181.9" y="90.5" fill="#FEDADB" width="22.7" height="22.6"/>
<rect x="1181.9" y="113.2" fill="#FEEBEB" width="22.7" height="22.6"/>
<rect x="1181.9" y="135.8" fill="#FFFBFB" width="22.7" height="22.6"/>
<rect x="1181.9" y="158.5" fill="#FFFBFB" width="22.7" height="22.6"/>
<rect x="1181.9" y="181.1" fill="#FFFFFF" width="22.7" height="22.6"/>
<rect x="1181.9" y="203.7" fill="#FEEBEB" width="22.7" height="22.6"/>
<rect x="1181.9" y="226.4" fill="#FFFFFF" width="22.7" height="22.6"/>
<rect x="1204.6" fill="#FFFFFF" width="22.7" height="22.6"/>
<rect x="1204.6" y="22.6" fill="#FFFBFB" width="22.7" height="22.6"/>
<rect x="1204.6" y="45.3" fill="#FFFBFB" width="22.7" height="22.6"/>
<rect x="1204.6" y="67.9" fill="#FFFBFB" width="22.7" height="22.6"/>
<rect x="1204.6" y="90.5" fill="#FFFBFB" width="22.7" height="22.6"/>
<rect x="1204.6" y="113.2" fill="#FFFFFF" width="22.7" height="22.6"/>
<rect x="1204.6" y="135.8" fill="#FFFBFB" width="22.7" height="22.6"/>
<rect x="1204.6" y="158.5" fill="#FFFFFF" width="22.7" height="22.6"/>
<rect x="1204.6" y="181.1" fill="#FFFFFF" width="22.7" height="22.6"/>
<rect x="1204.6" y="203.7" fill="#FFFFFF" width="22.7" height="22.6"/>
<rect x="1204.6" y="226.4" fill="#FFFFFF" width="22.7" height="22.6"/>
<rect x="1227.3" y="22.6" fill="#FFFFFF" width="22.7" height="22.6"/>
<rect x="1227.3" y="45.3" fill="#FFFBFB" width="22.7" height="22.6"/>
<rect x="1227.3" y="67.9" fill="#FFFFFF" width="22.7" height="22.6"/>
<rect x="1227.3" y="90.5" fill="#FFFFFF" width="22.7" height="22.6"/>
<rect x="1227.3" y="113.2" fill="#FFFBFB" width="22.7" height="22.6"/>
<rect x="1227.3" y="135.8" fill="#FFFFFF" width="22.7" height="22.6"/>
<rect x="1227.3" y="158.5" fill="#FFFBFB" width="22.7" height="22.6"/>
<rect x="1227.3" y="181.1" fill="#FFFFFF" width="22.7" height="22.6"/>
<rect x="1227.3" y="203.7" fill="#FFFBFB" width="22.7" height="22.6"/>
<rect fill="none" width="1250" height="249"/>
</svg>
